<svg xmlns="http://www.w3.org/2000/svg" xmlns:xlink="http://www.w3.org/1999/xlink" width="278.931" height="303.604" viewBox="0 0 278.931 303.604"><defs><style>.a,.ae{fill:#fff;}.a{stroke:#c7c7c7;}.b{fill:#f2e9e2;}.c{fill:#d8c3a0;}.d{fill:#4000ff;}.e{fill:#70340a;}.f{fill:#bc8356;}.g{fill:#292533;}.h{fill:#005dcc;}.i{fill:#ff2d38;}.j{fill:#faa17b;}.k{fill:#0073f0;}.l{fill:#00d9f0;}.m{fill:#ffd23b;}.n{fill:#003249;}.o{fill:#002230;}.p{fill:#e57c5e;}.q{fill:#faa07b;}.r{fill:#e1e6e5;}.s{fill:#9dabb8;}.t{fill:#69747c;}.u{fill:#b7c4ce;}.v{fill:#ff7dd6;}.w{fill:#ffbfe5;}.x,.y{fill:#003e4f;}.x{opacity:0.2;}.z{fill:#19516f;}.aa{fill:#002a38;}.ab{fill:#383146;}.ac{fill:#6959b0;}.ad{fill:#ff5d68;}.ad,.af,.ag,.ah{fill-rule:evenodd;}.af{fill:#f7c04a;}.ag{fill:#6897ff;}.ah{fill:#aed23b;}.ai{clip-path:url(#a);}</style><clipPath id="a"><rect class="a" width="24" height="13.418" transform="translate(101 6660)"/></clipPath></defs><g transform="translate(-219.923 -294.914)"><ellipse class="b" cx="139.465" cy="11.063" rx="139.465" ry="11.063" transform="translate(219.923 576.391)"/><g transform="translate(461.86 536.284)"><g transform="translate(0 0)"><g transform="translate(10.686 0)"><rect class="c" width="2.449" height="16.111" transform="matrix(0.982, -0.191, 0.191, 0.982, 0, 0.468)"/></g><g transform="translate(5.606 33.196)"><path class="d" d="M1511.329,1557.707l-.544-.211h-.041Z" transform="translate(-1510.743 -1557.495)"/></g><g transform="translate(1.631 13.209)"><path class="c" d="M1511.063,1502.43H1497.8a2.582,2.582,0,0,1-2.573-2.375l-2.765-34.472H1516.4l-2.765,34.472A2.582,2.582,0,0,1,1511.063,1502.43Z" transform="translate(-1492.46 -1465.582)"/></g><g transform="translate(0 10.716)"><g transform="translate(1.301)"><path class="c" d="M1515.544,1456.828h-24.6a2.709,2.709,0,0,1,2.709-2.709h19.182a2.709,2.709,0,0,1,2.709,2.709Z" transform="translate(-1490.943 -1454.119)"/></g><g transform="translate(0 2.276)"><rect class="e" width="27.202" height="2.709" rx="1.355"/></g></g><g transform="translate(2.217 24.135)"><path class="e" d="M1495.158,1515.828l1.223,15.067H1516.7l1.223-15.067Z" transform="translate(-1495.158 -1515.828)"/><g transform="translate(6.379 3.484)"><g transform="translate(4.512)"><path class="f" d="M1549.29,1532.079c-2.851,4.168-2.254,5-2.254,5a14.191,14.191,0,0,1,2.6-4.736c1.2.534,1.16,2.551.268,3.951-.922,1.446-3.069,2.19-3.8,1.325-1.063-.314-1.139-2.465-.228-3.894C1546.717,1532.4,1548.376,1531.379,1549.29,1532.079Z" transform="translate(-1545.24 -1531.852)"/></g><g transform="translate(0 2.886)"><path class="f" d="M1524.864,1545.79c5.185,2.545,5.158,3.535,5.158,3.535a19.764,19.764,0,0,0-5.307-3.157c-.759.972.527,2.759,2.209,3.641,1.738.911,4.157.688,4.288-.389.773-.72-.493-2.673-2.211-3.573C1527.408,1545.011,1525.263,1544.786,1524.864,1545.79Z" transform="translate(-1524.492 -1545.124)"/></g></g></g></g></g><g transform="translate(260.911 332.863)"><path class="g" d="M911.1,625.861H901.091a26.731,26.731,0,0,1-26.508-26.948V580.407a27.9,27.9,0,0,1,27.67-28.129h7.683a27.9,27.9,0,0,1,27.67,28.129v18.506A26.731,26.731,0,0,1,911.1,625.861Z" transform="translate(-806.37 -534.26)"/><g transform="translate(36.649 71.387)"><path class="h" d="M1155.865,963.387c-2.274-7.6-6.011-16-14.5-21.358a4.845,4.845,0,0,0-6.452,1.153,16.242,16.242,0,0,0-1.892,14.3c3.907,10.431,7.313,21.535,10.9,32.251,1.852,5.523,11.048,30.034,13.707,34.16,2.987,4.635,7.344,3.58,10.829.148C1176.8,1015.841,1158.623,972.607,1155.865,963.387Z" transform="translate(-1044.576 -910.051)"/><path class="h" d="M745.1,963.333c2.278-7.614,6.024-16.027,14.54-21.385a4.8,4.8,0,0,1,6.377,1.139c2.736,3.594,3.635,9.772,1.923,14.345-3.907,10.431-7.312,21.536-10.905,32.252-1.852,5.523-11.048,30.034-13.706,34.16-2.987,4.635-7.345,3.579-10.829.148C724.164,1015.787,742.338,972.553,745.1,963.333Z" transform="translate(-730.134 -909.998)"/><g transform="translate(18.571)"><path class="i" d="M943.409,938.111H922.945c-7.6,0-13.764-7.69-13.764-17.176h0c0-9.486,6.162-17.176,13.764-17.176h20.464c7.6,0,13.764,7.69,13.764,17.176h0C957.173,930.421,951.011,938.111,943.409,938.111Z" transform="translate(-888.664 -880.693)"/><path class="j" d="M951.619,828.946a31.636,31.636,0,0,0-6.284-5.751c-.653-.454-1.1-1.375-1.991-1.724-4.134-1.61-4.468-6.732-4.113-13.415.008-.16.023-.319.04-.479.117-1.131.5-6.886-3.4-9.281-.645-.4-7.281-.6-8.02-.6h0c-.738,0-5.9.208-6.541.6-3.944,2.415-3.548,8.244-3.44,9.309.015.145.027.289.035.434.36,6.683-.382,12.072-4.1,13.413-.91.328-1.345,1.278-2,1.734a31.8,31.8,0,0,0-6.275,5.72,9.875,9.875,0,0,0-.516,11.789c5.45,7.752,15.823,10.323,22.469,10.727h2.215c6.646-.4,16.991-2.972,22.441-10.724A9.851,9.851,0,0,0,951.619,828.946Z" transform="translate(-884.063 -797.693)"/><path class="k" d="M921.052,941.629c-1.188-7.365-1.348-19.3-3.145-26.474a108.765,108.765,0,0,0-18.766-8.194,14.116,14.116,0,0,1,1.607,6.431c0,7.857-7.3,14.563-16.212,14.563h-.1a19.209,19.209,0,0,1-2.277-.335,18.809,18.809,0,0,1-2.114-.484,18.208,18.208,0,0,1-2.007-.663,17.675,17.675,0,0,1-1.881-.851,17,17,0,0,1-1.735-1.034,16.26,16.26,0,0,1-1.57-1.208,15.349,15.349,0,0,1-1.385-1.368,14.522,14.522,0,0,1-1.182-1.512,13.74,13.74,0,0,1-.957-1.641,13.1,13.1,0,0,1-.714-1.754,12.658,12.658,0,0,1-.62-3.78c0-.046,0-.092,0-.138a13.3,13.3,0,0,1,1.608-6.23,108.778,108.778,0,0,0-18.767,8.194c-1.8,7.177-1.957,19.106-3.146,26.472-.671,4.161-1.384,13.895-.328,18.053,1.369,5.39,3.561,9.879,5.167,15.193.816,2.7,2.593,18.772,2.713,21.611.253,6,.626,14.859-6.332,28.178l71.537-.142a53.7,53.7,0,0,1-6.94-27.972c.12-2.839,1.9-18.9,2.713-21.6,1.605-5.314,3.8-9.839,5.167-15.229C922.436,955.555,921.723,945.79,921.052,941.629Z" transform="translate(-839.863 -883.197)"/><g transform="translate(44.382 44.759)"><path class="l" d="M1019.636,1003.515h0Z" transform="translate(-1019.448 -1003.515)"/><path class="l" d="M1018.937,1003.515h0Z" transform="translate(-1018.924 -1003.515)"/></g><path class="m" d="M934.356,911.718q-.063.7-.063,1.414a16.084,16.084,0,0,0,5.655,12.182,19.934,19.934,0,0,0,25.77,0,16.083,16.083,0,0,0,5.656-12.182q0-.712-.063-1.413c-.2-1.538-.546-4.012-3.736-4.815a13.893,13.893,0,0,1,1.623,6.228c.178,7.94-7.327,14.381-16.365,14.381s-16.365-6.439-16.365-14.381a13.38,13.38,0,0,1,1.6-6.251C934.88,907.683,934.4,911.054,934.356,911.718Z" transform="translate(-908.315 -883.136)"/><g transform="translate(40.692 45.701)"><path class="m" d="M0,0H2.6a0,0,0,0,1,0,0V18.439a1.3,1.3,0,0,1-1.3,1.3h0a1.3,1.3,0,0,1-1.3-1.3V0A0,0,0,0,1,0,0Z" transform="translate(2.113)"/><circle class="n" cx="0.735" cy="0.735" r="0.735" transform="translate(0 2.981)"/><circle class="n" cx="0.735" cy="0.735" r="0.735" transform="translate(0 10.092)"/><circle class="n" cx="0.735" cy="0.735" r="0.735" transform="translate(0 17.204)"/></g><g transform="translate(8.483 77.628)"><path class="k" d="M888.058,1161.054c-3.62,0-7.2.546-10.812.614-3.445.064-6.85.9-10.346.727a18.945,18.945,0,0,1-6.466-1.4c-2.212-.943-4.09-2.53-6.164-3.728,1.051,3.218,2.765,8.188,3.748,11.444.816,2.7,2.593,18.772,2.713,21.611.205,4.871-1.925,14.747-6.46,25.419a5.385,5.385,0,0,0,4.984,7.469l61.715-.111a5.391,5.391,0,0,0,4.929-7.551c-4.32-9.881-7.105-20.42-6.905-25.163.12-2.839,1.9-18.9,2.713-21.6,1.3-4.3,3.341-9.978,4.661-14.118-1.113,3.466-5.767,5.949-9.081,6.685C907.624,1163.494,897.813,1161.054,888.058,1161.054Z" transform="translate(-853.841 -1154.662)"/></g><g transform="translate(0 139.081)"><path class="o" d="M814.833,1437.249c14.108,19.418,23.911,34.174,43.942,34.174s25.9-13.562,40.011-32.979c-14.108,6.645-19.98,4.567-40.011,4.567S828.941,1443.894,814.833,1437.249Z" transform="translate(-814.833 -1437.249)"/></g><path class="k" d="M847.922,1426.45c-.168.359.012.752.852,1.145a5.858,5.858,0,0,0,1.467.356c2.092.384,3.4,1.571,5.009,2.971a10.836,10.836,0,0,0,5.9,2.178,65.851,65.851,0,0,0,9.61.553c6.622-.089,13.168-.91,19.773-1.246,4.771,0,9.582-.488,14.349-.731,4.446-.227,8.425-.484,12.323-3.306a30.838,30.838,0,0,0,3.449-1.883c.108-.219-6.335-3.664-7.015-3.928-2.994-1.162-5.8-1.157-8.9-1.115-3.167.042-6.395-.276-9.577-.337-6.819-.131-13.641-.058-20.458.181-6.971.244-14.01.674-20.714,2.885a30.451,30.451,0,0,0-3.331.775C850.035,1425.132,848.263,1425.723,847.922,1426.45Z" transform="translate(-840.682 -1285.486)"/><path class="p" d="M977.057,824.448h0c4.275,0,8.3-2.236,11.711-5.774-1.254-2.49-1.32-6.214-1.086-10.617.008-.16.023-.319.039-.479.117-1.131.5-6.886-3.4-9.281-.645-.4-7.281-.6-8.02-.6s-5.9.208-6.541.6c-3.944,2.415-3.548,8.244-3.44,9.309.015.145.027.289.035.434.23,4.264.009,8-1.144,10.494C968.647,822.153,972.724,824.448,977.057,824.448Z" transform="translate(-932.507 -797.693)"/></g><g transform="translate(57.808 99.941)"><g transform="translate(18.341 1.078)"><path class="j" d="M1123.534,1263.2c-5.339-2.426-11.2.148-15.934,2.51-5.029,2.508-9.669,5.578-14.424,8.472-4.006,2.438-8.875,4.086-12.036,7.5a5.1,5.1,0,0,0-1.525,3.7c.151,2.16,2.234,3.893,4.524,4.558,3.1.9,6.616.266,9.782-.149,5.57-.729,11.091-2,16.6-3.018,4.963-.921,9.91-2.385,13.628-5.623C1129.6,1276.409,1131.612,1266.873,1123.534,1263.2Z" transform="translate(-1079.606 -1262.226)"/></g><g transform="translate(49.62)"><path class="m" d="M1239.6,1273.776l.093-.331c.07-.214.143-.53.246-.924s.2-.881.292-1.428a15.446,15.446,0,0,0,.2-1.833,12.3,12.3,0,0,0-.065-2.111,9.489,9.489,0,0,0-.516-2.2,9.154,9.154,0,0,0-.474-1.052,8.314,8.314,0,0,0-.639-.972c-.112-.16-.25-.3-.374-.452-.141-.138-.268-.288-.418-.42a7.384,7.384,0,0,0-.93-.758,10.5,10.5,0,0,0-2.165-1.15,11.327,11.327,0,0,0-2.331-.621,16.7,16.7,0,0,0-4.483-.017c-.677.075-1.3.174-1.859.27s-1.05.184-1.454.265-.728.139-.946.185l-.339.063.282-.2c.187-.122.458-.314.819-.524a17.1,17.1,0,0,1,3.158-1.5,14.845,14.845,0,0,1,2.311-.612,12.418,12.418,0,0,1,2.73-.176,10.971,10.971,0,0,1,2.94.549c.246.085.527.187.724.269l.161.066.2.092.351.169c.234.112.46.249.691.374.224.141.452.275.667.432a9.07,9.07,0,0,1,2.25,2.265,8.507,8.507,0,0,1,1.263,2.811,9.466,9.466,0,0,1,.269,2.788,10.687,10.687,0,0,1-.391,2.405,11.407,11.407,0,0,1-1.468,3.219c-.111.179-.222.333-.322.464s-.181.241-.252.328Z" transform="translate(-1223.439 -1257.268)"/></g><g transform="translate(0 18.684)"><path class="p" d="M1014.381,1355.444a8.925,8.925,0,0,0,.017-3.212c-.064-.476-.14-.953-.231-1.427-.406-2.1-2.459-3.252-4.035-2.261-.8.5-1.594,1.007-2.373,1.51-3.534,2.283-5.35,4.141-9.791,3.879a3.254,3.254,0,0,0-2.341.359c-.79.712-.161,1.992.72,2.674,2.231,1.728,5.544,1.717,8.27.93a29.2,29.2,0,0,1,8-.995,1.828,1.828,0,0,0,1.7-1.24Q1014.353,1355.556,1014.381,1355.444Z" transform="translate(-995.266 -1347.098)"/><path class="p" d="M1068.074,1370.959l-14.423-1.858a3,3,0,0,1-2.581-3.449l.058-.366a3,3,0,0,1,3.348-2.505l14.423,1.858a3,3,0,0,1,2.581,3.449l-.058.366A3,3,0,0,1,1068.074,1370.959Z" transform="translate(-1038.905 -1358.5)"/><path class="q" d="M1064.338,1348.128c-1.286-1.194-4.551-2.305-6.288-2.642-1.671-.323-1.234-2.081-3.009-2.267-1.45-.152-2.849.291-4.312.175-7.168-.566-8.028,5.207-9.4,10.42a21.493,21.493,0,0,0-.583,7.431c.128,2.05,2.133,6.866,4.291,2.813,2.254-4.234.21-9.638,2.975-13.977-.553,2.166-4.783,16.458-.293,16.78,2.914.209,3.078-6.3,3.615-8,.366-1.16,1.267-7.71,2.539-7.951.025,0-.636,3.424-.734,3.737-.422,1.351-.944,2.675-1.4,4.018a18.212,18.212,0,0,0-.949,3.911c-.093.9-.416,3.064.949,3.328,1,.194,1.737-.88,2.189-1.511a17.5,17.5,0,0,0,1.8-2.685,81.361,81.361,0,0,0,3.771-8.907c.707,1.52-.007,3.46-.929,4.928a9.717,9.717,0,0,0-1.17,2.815c-.155.618-.718,2.161.023,2.619,1.05.649,3.343-1.913,3.91-2.526a22.412,22.412,0,0,0,3.141-4.425c1.335-2.42,2.255-5.638.054-7.9Q1064.437,1348.221,1064.338,1348.128Z" transform="translate(-1030.791 -1343.187)"/></g></g><g transform="translate(0 99.941)"><g transform="translate(0.78 1.078)"><path class="j" d="M738.417,1263.2c5.338-2.426,11.2.148,15.934,2.51,5.029,2.508,9.669,5.578,14.424,8.472,4.006,2.438,8.875,4.086,12.035,7.5a5.1,5.1,0,0,1,1.525,3.7c-.151,2.16-2.234,3.893-4.523,4.558-3.1.9-6.616.266-9.782-.149-5.57-.729-11.091-2-16.6-3.018-4.963-.921-9.91-2.385-13.628-5.623C732.353,1276.409,730.339,1266.873,738.417,1263.2Z" transform="translate(-733.023 -1262.226)"/></g><path class="m" d="M732.1,1273.776l-.093-.331c-.07-.214-.143-.53-.246-.924s-.2-.881-.292-1.428a15.434,15.434,0,0,1-.2-1.833,12.284,12.284,0,0,1,.065-2.111,9.473,9.473,0,0,1,.516-2.2,9.164,9.164,0,0,1,.474-1.052,8.329,8.329,0,0,1,.639-.972c.112-.16.25-.3.374-.452.141-.138.268-.288.418-.42a7.411,7.411,0,0,1,.93-.758,10.488,10.488,0,0,1,2.165-1.15,11.33,11.33,0,0,1,2.331-.621,16.7,16.7,0,0,1,4.483-.017c.677.075,1.3.174,1.859.27s1.049.184,1.454.265.728.139.945.185l.338.063-.282-.2c-.187-.122-.458-.314-.819-.524a17.087,17.087,0,0,0-3.158-1.5,14.852,14.852,0,0,0-2.311-.612,12.417,12.417,0,0,0-2.73-.176,10.969,10.969,0,0,0-2.94.549c-.247.085-.527.187-.724.269l-.161.066-.2.092-.351.169c-.234.112-.46.249-.691.374-.224.141-.452.275-.667.432a9.075,9.075,0,0,0-2.25,2.265,8.514,8.514,0,0,0-1.263,2.811,9.466,9.466,0,0,0-.269,2.788,10.684,10.684,0,0,0,.391,2.405,11.411,11.411,0,0,0,1.468,3.219c.111.179.222.333.322.464s.181.241.252.328Z" transform="translate(-729.436 -1257.268)"/><g transform="translate(33.379 18.684)"><path class="p" d="M955.707,1355.444a8.926,8.926,0,0,1-.017-3.212c.064-.476.14-.953.231-1.427.406-2.1,2.459-3.252,4.035-2.261.8.5,1.594,1.007,2.373,1.51,3.534,2.283,5.35,4.141,9.791,3.879a3.254,3.254,0,0,1,2.341.359c.791.712.161,1.992-.72,2.674-2.23,1.728-5.544,1.717-8.27.93a29.2,29.2,0,0,0-8-.995,1.828,1.828,0,0,1-1.7-1.24C955.748,1355.591,955.726,1355.519,955.707,1355.444Z" transform="translate(-939.758 -1347.098)"/><path class="p" d="M897.642,1370.959l14.423-1.858a3,3,0,0,0,2.581-3.449l-.059-.366a3,3,0,0,0-3.348-2.505l-14.423,1.858a3,3,0,0,0-2.581,3.449l.058.366A3,3,0,0,0,897.642,1370.959Z" transform="translate(-891.747 -1358.5)"/><path class="q" d="M884.444,1348.128c1.286-1.194,4.551-2.305,6.288-2.642,1.671-.323,1.235-2.081,3.009-2.267,1.45-.152,2.849.291,4.312.175,7.168-.566,8.028,5.207,9.4,10.42a21.49,21.49,0,0,1,.583,7.431c-.128,2.05-2.133,6.866-4.291,2.813-2.254-4.234-.21-9.638-2.975-13.977.553,2.166,4.783,16.458.293,16.78-2.914.209-3.078-6.3-3.615-8-.366-1.16-1.267-7.71-2.539-7.951-.025,0,.636,3.424.734,3.737.422,1.351.944,2.675,1.4,4.018a18.223,18.223,0,0,1,.949,3.911c.093.9.416,3.064-.949,3.328-1,.194-1.737-.88-2.189-1.511a17.507,17.507,0,0,1-1.8-2.685,81.348,81.348,0,0,1-3.771-8.907c-.707,1.52.007,3.46.929,4.928a9.721,9.721,0,0,1,1.17,2.815c.155.618.718,2.161-.024,2.619-1.05.649-3.343-1.913-3.91-2.526a22.4,22.4,0,0,1-3.141-4.425c-1.335-2.42-2.254-5.638-.054-7.9C884.313,1348.253,884.378,1348.19,884.444,1348.128Z" transform="translate(-882.928 -1343.187)"/></g></g></g><g transform="translate(48.889 163.528)"><path class="r" d="M885.495,1221.4H787.763a2.042,2.042,0,0,0-2.042,2.042h0a1.98,1.98,0,0,0,1.98,1.98h97.856a1.98,1.98,0,0,0,1.98-1.98h0A2.042,2.042,0,0,0,885.495,1221.4Z" transform="translate(-785.721 -1221.401)"/><g transform="translate(0.01 1.186)"><path class="s" d="M792.355,1281.406l-6.589-53.459a1.19,1.19,0,0,1,1.268-1.092h99.278a1.19,1.19,0,0,1,1.268,1.092l-6.589,53.459Z" transform="translate(-785.766 -1226.854)"/></g><g transform="translate(6.03 55.718)"><rect class="t" width="89.775" height="2.158" rx="1.079"/></g><ellipse class="u" cx="6.034" cy="5.727" rx="6.034" ry="5.727" transform="translate(45.014 23.585)"/></g><g transform="translate(0 199.01)"><g transform="translate(4.064 0.476)"><g transform="translate(0 33.711)"><path class="q" d="M581.8,1548.437s-.207-8.483,14.021-6.315q.347.053.706.114a2.608,2.608,0,0,0,.647.032A22.977,22.977,0,0,1,609.13,1545c6.639,3.46,23.389,5.135,24.971,5.165.143,0,.337,0,.653,0v16.784c-5.373.177-9.428.347-9.946.337-.556-.011-19.756-.086-30.785-1.742-3.447-.517-6.09-1.189-7.119-2.061C586.9,1563.479,574.738,1557.074,581.8,1548.437Z" transform="translate(-579.597 -1541.767)"/><path class="v" d="M632.054,1559.586c.924-2.232,2.346-4.307,2.717-6.692.411-2.643-.505-5.486.54-7.952a5.153,5.153,0,0,1,1.03-1.544q.347.053.706.114a2.62,2.62,0,0,0,.647.032,22.977,22.977,0,0,1,11.954,2.731c6.639,3.46,23.412,5.135,24.994,5.165.143,0,.374,0,.676,0v16.784c-5.315.177-9.451.347-9.969.337-.556-.01-19.768-.086-30.8-1.742-.164-.093-.33-.182-.492-.278A6.136,6.136,0,0,1,632,1564.81C630.981,1563.295,631.36,1561.264,632.054,1559.586Z" transform="translate(-620.114 -1543.043)"/><path class="w" d="M591.483,1563.534c-1.017-1.515-.638-3.546.057-5.224.924-2.232,2.346-4.307,2.717-6.692.411-2.643-.505-5.486.54-7.952a5.153,5.153,0,0,1,1.03-1.544c-14.228-2.168-14.021,6.315-14.021,6.315-7.065,8.637,5.107,15.043,5.107,15.043,1.029.872,3.678,1.544,7.125,2.061-.164-.093-.33-.182-.492-.278A6.138,6.138,0,0,1,591.483,1563.534Z" transform="translate(-579.6 -1541.767)"/><g transform="translate(36.301 7.978)"><path class="j" d="M762.5,1580.635a22.693,22.693,0,0,1,4.633.469v15.245a22.684,22.684,0,0,1-4.633.469c-7.619,0-13.8-3.623-13.8-8.092S754.882,1580.635,762.5,1580.635Z" transform="translate(-748.232 -1580.161)"/><path class="w" d="M760.794,1578.454a22.932,22.932,0,0,1,4.633.466v.958a22.328,22.328,0,0,0-4.633-.476c-7.345,0-13.321,3.417-13.321,7.618s5.975,7.618,13.321,7.618a22.311,22.311,0,0,0,4.633-.476v.958a22.941,22.941,0,0,1-4.633.466c-7.868,0-14.269-3.843-14.269-8.566S752.926,1578.454,760.794,1578.454Z" transform="translate(-746.525 -1578.454)"/></g></g><path class="n" d="M804.524,1428.589a3.774,3.774,0,0,1,.39-.549c2.375-2.757,9.2-3.622,12.852-4.78q6.246-1.98,12.477-3.994c10.823-3.5,21.045-7.2,31.519-11.513,18.243-7.29,36.666-17.491,56.767-20.629,7.729-1.1,16.379.134,21.989,4.85a16.087,16.087,0,0,1,5.681,14.514c-1.656,11.532-14.542,17.175-25.325,22-18.652,8.349-39.244,13.168-60.089,15.723-15.45,1.893-30.971,2.21-46.567,2.758a13.7,13.7,0,0,1-4.094-.268C804.567,1445.175,802,1432.875,804.524,1428.589Z" transform="translate(-754.849 -1386.751)"/><g transform="translate(6.294 33.079)"><path class="x" d="M618.432,1541.807c-4.665-.707-7.8-.223-9.891.73a126.639,126.639,0,0,0,48.863,21.382v-13.989c-.316,0-.51.006-.653,0-1.582-.03-18.344-1.7-24.982-5.165a22.963,22.963,0,0,0-11.948-2.731,2.589,2.589,0,0,1-.644-.032C618.937,1541.962,618.432,1541.807,618.432,1541.807Z" transform="translate(-608.541 -1540.902)"/><path class="y" d="M623.281,1538.861" transform="translate(-620.076 -1538.861)"/></g></g><g transform="translate(136.03 34.186)"><path class="q" d="M1239.592,1548.437s.207-8.483-14.021-6.315q-.347.053-.706.114a2.607,2.607,0,0,1-.647.032,22.978,22.978,0,0,0-11.954,2.731c-6.639,3.46-23.491,5.135-25.073,5.165-.143,0-.439,0-.755,0v16.784c5.374.177,9.53.347,10.048.337.556-.011,19.807-.086,30.836-1.742,3.447-.517,6.115-1.189,7.144-2.061C1234.465,1563.479,1246.656,1557.074,1239.592,1548.437Z" transform="translate(-1186.436 -1541.767)"/><path class="v" d="M1230.427,1559.586c-.924-2.232-2.346-4.307-2.717-6.692-.411-2.643.505-5.486-.54-7.952a5.152,5.152,0,0,0-1.03-1.544q-.347.053-.706.114a2.617,2.617,0,0,1-.647.032,22.978,22.978,0,0,0-11.954,2.731c-6.639,3.46-23.412,5.135-24.994,5.165-.143,0-.374,0-.676,0v16.784c5.315.177,9.451.347,9.969.337.556-.01,19.768-.086,30.8-1.742.164-.093.33-.182.492-.278a6.137,6.137,0,0,0,2.062-1.728C1231.5,1563.295,1231.121,1561.264,1230.427,1559.586Z" transform="translate(-1187.006 -1543.043)"/><path class="w" d="M1370.741,1563.534c1.017-1.515.638-3.546-.057-5.224-.924-2.232-2.346-4.307-2.717-6.692-.411-2.643.505-5.486-.54-7.952a5.156,5.156,0,0,0-1.03-1.544c14.228-2.168,14.021,6.315,14.021,6.315,7.065,8.637-5.107,15.043-5.107,15.043-1.029.872-3.678,1.544-7.125,2.061.164-.093.33-.182.492-.278A6.141,6.141,0,0,0,1370.741,1563.534Z" transform="translate(-1327.263 -1541.767)"/><g transform="translate(0.158 7.978)"><path class="j" d="M1191.8,1580.635a22.693,22.693,0,0,0-4.633.469v15.245a22.684,22.684,0,0,0,4.633.469c7.619,0,13.8-3.623,13.8-8.092S1199.416,1580.635,1191.8,1580.635Z" transform="translate(-1187.164 -1580.161)"/><path class="w" d="M1191.8,1578.454a22.93,22.93,0,0,0-4.633.466v.958a22.326,22.326,0,0,1,4.633-.476c7.345,0,13.321,3.417,13.321,7.618s-5.976,7.618-13.321,7.618a22.309,22.309,0,0,1-4.633-.476v.958a22.939,22.939,0,0,0,4.633.466c7.868,0,14.269-3.843,14.269-8.566S1199.665,1578.454,1191.8,1578.454Z" transform="translate(-1187.164 -1578.454)"/></g></g><path class="z" d="M702.658,1426.828a3.76,3.76,0,0,0-.388-.551c-2.366-2.765-9.189-3.655-12.836-4.826q-6.24-2-12.465-4.039c-10.812-3.536-21.022-7.271-31.482-11.625-18.22-7.356-36.611-17.622-56.7-20.832-7.725-1.124-16.38.076-22,4.772a16.081,16.081,0,0,0-5.726,14.493c1.619,11.537,14.488,17.227,25.255,22.092,18.626,8.415,39.2,13.308,60.039,15.937,15.444,1.949,30.964,2.321,46.558,2.925a13.7,13.7,0,0,0,4.095-.253C702.563,1443.414,705.169,1431.124,702.658,1426.828Z" transform="translate(-560.907 -1384.563)"/></g><g transform="translate(64.234)"><g transform="translate(10.704 23.524)"><path class="j" d="M952.561,608.113c2.173-18.017-8.335-30.515-22.186-30.515h0c-13.843,0-24.347,12.483-22.19,30.483-5.253.935-1.86,16.651,2.338,15.349,2.968,11.717,10.837,22.464,19.852,22.464h0c9,0,16.866-10.722,19.842-22.423C954.3,624.344,957.524,609.32,952.561,608.113Z" transform="translate(-905.506 -577.598)"/><g transform="translate(0)"><path class="p" d="M952.561,608.113c2.173-18.017-8.335-30.515-22.186-30.515h0c-13.843,0-24.347,12.483-22.19,30.483-2.546.453-3.061,4.377-2.438,8.153l.036-.006c.986-8.388,4.29-3.589,4.29-3.589,7.7,2.683,17.273-11.4,18.339-13.018.07-.117.141-.234.211-.352l.11.217c1.38,1.989,15.644,22.187,24.876,20.959C955.52,616.2,955.95,608.937,952.561,608.113Z" transform="translate(-905.506 -577.598)"/></g></g><g transform="translate(13.625 56.307)"><path class="aa" d="M962.156,728.393a.715.715,0,0,0-.888.487l-1.471,5.028a6.817,6.817,0,0,0-.955-1.506,6.161,6.161,0,0,0-4.411-2.059h-5.746a6.16,6.16,0,0,0-4.411,2.059,6.329,6.329,0,0,0-1.3,2.26.755.755,0,0,0-.312.1,4.5,4.5,0,0,1-1.833.32,4.609,4.609,0,0,1-1.833-.3.7.7,0,0,0-.312-.065,6.588,6.588,0,0,0-1.3-2.322,6.159,6.159,0,0,0-4.411-2.057h-5.746a6.16,6.16,0,0,0-4.411,2.059,6.407,6.407,0,0,0-.99,1.511l-1.491-5.064a.706.706,0,0,0-.888-.471.728.728,0,0,0-.484.9l2.247,7.683c0,.042,0,.086.006.129l.142,2.03a6.882,6.882,0,0,0,6.8,6.4h3.891a6.881,6.881,0,0,0,6.8-6.394l.142-2.014a6.157,6.157,0,0,0,0-.786,7.687,7.687,0,0,0,3.677-.006,6.024,6.024,0,0,0,0,.777l.142,2.029a6.881,6.881,0,0,0,6.8,6.393H953.5a6.881,6.881,0,0,0,6.8-6.394l.142-2.014c.008-.114.012-.235.014-.349l2.184-7.468A.724.724,0,0,0,962.156,728.393Zm-24.593,8.6-.142,1.958a5.381,5.381,0,0,1-5.371,4.987H928.16a5.38,5.38,0,0,1-5.371-4.987l-.142-1.979a4.344,4.344,0,0,1,1.221-3.368,4.439,4.439,0,0,1,3.364-1.361h5.746a4.447,4.447,0,0,1,3.364,1.372A4.367,4.367,0,0,1,937.563,736.989Zm15.94,6.945h-3.891a5.38,5.38,0,0,1-5.371-4.987l-.142-1.979a4.344,4.344,0,0,1,1.221-3.368,4.438,4.438,0,0,1,3.364-1.361h5.746a4.445,4.445,0,0,1,4.594,4.358l-.012.016a.676.676,0,0,0,0,.4l-.141,1.943A5.375,5.375,0,0,1,953.5,743.934Z" transform="translate(-918.939 -728.347)"/></g><path class="ab" d="M894.4,499.485a27.364,27.364,0,0,1,.611,3.257,24.5,24.5,0,0,1-2.8,14.181c-2.767,5.353-6.089,10.589-10.8,14.457a31.222,31.222,0,0,1-19.69,6.81c-1.91.017-4.153-.342-5.043-2.033a5.765,5.765,0,0,1-.218-3.537c1.232-8.23,2.471-16.5,4.908-24.454s6.136-15.655,11.766-21.784c2.408-2.621,5.8-4.837,9.578-5.061,10.9-.646,14.612,6.67,16.187,9.722C900.587,494.325,893.477,495.789,894.4,499.485Z" transform="translate(-856.286 -478.703)"/><g transform="translate(27.162)"><path class="ab" d="M1023.976,535.024c-.266-7.62-.7-15.106-.5-22.737a46.77,46.77,0,0,0-5.289-23.146,36.165,36.165,0,0,0-1.685-4.12,37.821,37.821,0,0,0-4.335-6.907,26.718,26.718,0,0,0-5.747-5.447,18.9,18.9,0,0,0-6.807-2.925c-.577-.126-1.171-.209-1.724-.273a7.918,7.918,0,0,0-1.734,0,11.912,11.912,0,0,0-3.13.8,15.214,15.214,0,0,0-4.707,3,13.839,13.839,0,0,0-2.664,3.362,11.747,11.747,0,0,0-.7,1.477,7.754,7.754,0,0,0-.326,1.673l-.15.9c-.091.961-.353,1.892-.46,2.853a46.537,46.537,0,0,1-.96,7.321c-.618,2.214-1.858,4-1.875,6.432-.021,3.034,1.817,5.213,3.525,7.513.1.129,1.521,2.662,1.7,3.122.2.563.4,1.145.643,1.727s.512,1.164.775,1.762c.591,1.166,1.2,2.374,1.935,3.533l.535.882.576.863c.385.576.762,1.161,1.186,1.712.8,1.134,1.68,2.214,2.559,3.26l1.35,1.515,1.385,1.414c.454.464.938.883,1.391,1.313s.922.822,1.38,1.2c.9.779,1.815,1.432,2.636,2.062.856.585,1.622,1.142,2.34,1.583.429.261.816.508,1.173.728a35.913,35.913,0,0,0,12.881,7.588l.177.031a3.958,3.958,0,0,0,4.645-4.028Zm-20.9-6.262c-.778-.668-1.645-1.359-2.488-2.176-.869-.785-1.733-1.669-2.615-2.59l-1.3-1.442-1.261-1.537c-.818-1.058-1.629-2.147-2.368-3.285-.388-.556-.728-1.144-1.076-1.722l-.52-.866-.471-.887c-.624-1.143-1.177-2.3-1.7-3.421.672.876,1.342,1.753,2.02,2.624,4.462,5.727,8.07,11.062,13.04,16.267C1003.692,529.272,1003.835,529.341,1003.079,528.762Zm10.394-46.594a35.878,35.878,0,0,0-7.108-6.476,19.84,19.84,0,0,0-8.825-3.548,13.635,13.635,0,0,0-9.393,2.481,11.4,11.4,0,0,0-2.181,1.855,13.632,13.632,0,0,1,2.579-2.955,15.367,15.367,0,0,1,4.67-2.763,11.373,11.373,0,0,1,3-.7,7.306,7.306,0,0,1,1.593.033c.567.081,1.107.171,1.662.307a18.685,18.685,0,0,1,6.471,2.961,25.83,25.83,0,0,1,5.51,5.315,36.063,36.063,0,0,1,3.306,5.079Q1014.133,482.947,1013.473,482.169Z" transform="translate(-981.188 -469.423)"/><path class="ac" d="M1017.194,504.785l.2-.092c.13-.062.324-.151.582-.255a12.509,12.509,0,0,1,2.291-.687,11.051,11.051,0,0,1,3.665-.095,14.407,14.407,0,0,1,4.489,1.478,22.324,22.324,0,0,1,4.588,3.237,32.247,32.247,0,0,1,4.209,4.675,30.485,30.485,0,0,1,1.827,2.772,33.343,33.343,0,0,1,1.536,3.031,39.458,39.458,0,0,1,2.226,6.584,43.959,43.959,0,0,1,1.089,6.883c.161,2.313.224,4.612.327,6.839s.2,4.387.4,6.431.443,3.972.77,5.736a39.836,39.836,0,0,0,1.2,4.745,26.513,26.513,0,0,0,1.4,3.5c.221.473.465.872.656,1.229.213.345.387.642.541.875l.481.707-.43-.738c-.136-.242-.288-.55-.475-.906-.166-.367-.375-.78-.566-1.261a26.186,26.186,0,0,1-1.2-3.525,39.357,39.357,0,0,1-.938-4.735c-.246-1.753-.433-3.663-.54-5.692s-.174-4.172-.206-6.4-.051-4.529-.182-6.884c-.066-1.183-.166-2.378-.324-3.569s-.4-2.378-.671-3.554a35.362,35.362,0,0,0-2.319-6.824,30.155,30.155,0,0,0-1.645-3.144,31.8,31.8,0,0,0-1.965-2.848,30.078,30.078,0,0,0-4.507-4.725,21.41,21.41,0,0,0-4.927-3.173,13.846,13.846,0,0,0-4.788-1.272,11.453,11.453,0,0,0-3.783.353,10.921,10.921,0,0,0-2.261.886c-.249.128-.434.234-.558.308Z" transform="translate(-1009.364 -495.775)"/></g></g></g><g transform="translate(237.171 294.914)"><g transform="translate(182.885 143.729)"><path class="ad" d="M1323.236,955.845h-24.092a6.509,6.509,0,0,0-6.418,6.359v15.66a6.194,6.194,0,0,0,6.418,5.985h7.715l2.886,3.005a2.045,2.045,0,0,0,2.89-.06l2.886-2.946h7.715a6.149,6.149,0,0,0,6.367-5.985V962.2A6.464,6.464,0,0,0,1323.236,955.845Z" transform="translate(-1293.067 -955.845)"/><g transform="translate(-27.741 4.399)"><path class="ae" d="M111.831,3.335a6.136,6.136,0,0,0-2.279,2.345c-.877,1.914,1.8,4,1.909,4.089a.148.148,0,0,0,.221-.185,8.489,8.489,0,0,1-.933-3.218c.013-.465.664-.994,1.354-1.553a7.821,7.821,0,0,0,1.767-1.772,2.846,2.846,0,0,0-.113-2.979.148.148,0,0,0-.264.116,3.139,3.139,0,0,1-.352,1.983A4.3,4.3,0,0,1,111.831,3.335Z" transform="translate(-65.845 0)"/><path class="ae" d="M152.946,63.45a.148.148,0,0,0-.141-.256c-.141.054-3.46,1.333-3.46,2.878a2.944,2.944,0,0,0,.787,2.039,1.55,1.55,0,0,1,.28.419,2.1,2.1,0,0,1-.247,1.171.147.147,0,0,0,.216.187c.057-.04,1.394-.985,1.155-2.124a2.81,2.81,0,0,0-.49-1.029c-.291-.433-.5-.745-.182-1.322A11.232,11.232,0,0,1,152.946,63.45Z" transform="translate(-103.456 -59.456)"/><path class="ae" d="M63.526,165.522a.524.524,0,0,0,.078.489c.36.5,1.634.774,3.588.774h0c.265,0,.544-.005.831-.015,3.124-.112,4.283-1.085,4.331-1.127a.148.148,0,0,0-.135-.254,21.5,21.5,0,0,1-4.58.407,10.073,10.073,0,0,1-2.606-.2,3.655,3.655,0,0,1,1.511-.544.148.148,0,0,0-.028-.292C66.058,164.761,63.766,164.8,63.526,165.522Z" transform="translate(-22.674 -155.038)"/><path class="ae" d="M215.394,160.673a3.081,3.081,0,0,0-1.281.337.148.148,0,0,0,.07.278c.014,0,1.375.011,1.5.789.109.671-1.288,1.758-1.835,2.12a.148.148,0,0,0,.081.271.144.144,0,0,0,.031,0c.13-.028,3.178-.7,2.856-2.474A1.374,1.374,0,0,0,215.394,160.673Z" transform="translate(-164.088 -151.191)"/><path class="ae" d="M91.972,201.07a.148.148,0,0,0-.06-.148l-.731-.512a.148.148,0,0,0-.123-.022,14.357,14.357,0,0,1-1.882.326,13.055,13.055,0,0,1-1.427.075,5.216,5.216,0,0,1-1.94-.226c-.014-.027-.01-.039-.007-.046a.372.372,0,0,1,.188-.142.148.148,0,0,0-.086-.282c-.733.177-1.092.424-1.066.735.046.551,1.324.834,2.4.909.155.011.323.016.5.016h0a20.966,20.966,0,0,0,4.12-.569A.148.148,0,0,0,91.972,201.07Z" transform="translate(-42.756 -188.282)"/><path class="ae" d="M94.648,232.423a.148.148,0,0,0-.085-.271c-.1,0-.961.042-1.022.591a.571.571,0,0,0,.14.446c.31.367,1.146.586,2.557.667.167.01.336.015.5.015a7.689,7.689,0,0,0,3.052-.585.148.148,0,0,0,.014-.259l-.924-.564a.148.148,0,0,0-.107-.019c-.006,0-.592.123-1.477.243a4.777,4.777,0,0,1-.623.034,7.739,7.739,0,0,1-2.056-.239A.059.059,0,0,1,94.648,232.423Z" transform="translate(-50.942 -218.452)"/><path class="ae" d="M44.964,255.736c4.108,0,6.313-.734,6.737-1.194a.508.508,0,0,0,.154-.417.644.644,0,0,0-.283-.415.149.149,0,0,0-.192.026.146.146,0,0,0,0,.192c.026.033.041.089-.035.165a14.192,14.192,0,0,1-4.734.785c-.391.02-.8.031-1.218.031a13.605,13.605,0,0,1-4.667-.553,3.638,3.638,0,0,1,1.458-.476.148.148,0,0,0-.045-.292c-.02,0-.087.007-.165.012-1.16.071-2.5.229-2.57.826a.608.608,0,0,0,.161.491c.313.352,1.213.82,5.4.82Z" transform="translate(0 -238.621)"/><path class="ae" d="M93.382,271.767a.147.147,0,0,0-.17.033,4.927,4.927,0,0,1-2.481,1.031,24.068,24.068,0,0,1-3.966.215c-1.924,0-3.756-.076-3.774-.076a.148.148,0,0,0-.04.291,21.959,21.959,0,0,0,4.562.454,21.264,21.264,0,0,0,3.64-.3c2.157-.378,2.308-1.448,2.313-1.493A.148.148,0,0,0,93.382,271.767Z" transform="translate(-40.873 -255.717)"/></g></g><g transform="translate(-0.455 95.383)"><path class="af" d="M482.012,732.552H457.92a6.256,6.256,0,0,0-6.181,6.3v15.66a6.034,6.034,0,0,0,6.181,6.041h7.715l2.886,2.977a2.044,2.044,0,0,0,2.89-.046l2.886-2.932h7.715a6.159,6.159,0,0,0,6.326-6.041v-15.66A6.38,6.38,0,0,0,482.012,732.552Z" transform="translate(-451.739 -732.552)"/></g><g transform="translate(22.776 159.887)"><path class="ag" d="M586.71,1030.149H562.618a6.371,6.371,0,0,0-6.143,6.47v15.66a5.866,5.866,0,0,0,6.143,5.874h7.715l2.886,3.061a2.045,2.045,0,0,0,2.889-.087l2.886-2.973h7.715c3.437,0,6.365-2.437,6.365-5.874v-15.66A6.56,6.56,0,0,0,586.71,1030.149Z" transform="translate(-556.475 -1030.149)"/><g transform="translate(-42.581 4.153)"><g transform="translate(56.409 6.884)"><g transform="translate(0)"><path class="ae" d="M146.713,192.034h-7.648a.383.383,0,0,0-.382.382v6.118a1.915,1.915,0,0,0,1.53,1.874v1.95a1.147,1.147,0,1,0,2.294,0v-1.912h.765v1.912a1.147,1.147,0,1,0,2.294,0v-1.95a1.915,1.915,0,0,0,1.53-1.874v-6.118A.382.382,0,0,0,146.713,192.034Z" transform="translate(-138.683 -192.034)"/></g></g><g transform="translate(56.409 -0.001)"><g transform="translate(0 0)"><path class="ae" d="M144.891,2.037l.645-1.5a.382.382,0,1,0-.7-.3l-.645,1.505a4.167,4.167,0,0,0-2.6,0L140.947.232a.382.382,0,1,0-.7.3l.645,1.5a4.209,4.209,0,0,0-2.206,3.7.383.383,0,0,0,.382.382h7.648a.383.383,0,0,0,.382-.382A4.21,4.21,0,0,0,144.891,2.037Zm-3.531,2.552a.382.382,0,1,1,.382-.382A.383.383,0,0,1,141.361,4.589Zm3.059,0a.382.382,0,1,1,.382-.382A.383.383,0,0,1,144.42,4.589Z" transform="translate(-138.684 0.001)"/></g></g><g transform="translate(65.586 6.884)"><path class="ae" d="M395.831,192.034a1.149,1.149,0,0,0-1.147,1.147V197a1.147,1.147,0,1,0,2.294,0v-3.824A1.149,1.149,0,0,0,395.831,192.034Z" transform="translate(-394.684 -192.034)"/></g><g transform="translate(53.35 6.884)"><g transform="translate(0)"><path class="ae" d="M54.5,192.034a1.149,1.149,0,0,0-1.147,1.147V197a1.147,1.147,0,1,0,2.294,0v-3.824A1.149,1.149,0,0,0,54.5,192.034Z" transform="translate(-53.35 -192.034)"/></g></g></g></g><g transform="translate(140.688 0)"><path class="ah" d="M1128.922,294.914H1104.83a6.371,6.371,0,0,0-6.143,6.47v15.66a5.866,5.866,0,0,0,6.143,5.874h7.715l2.886,3.061a2.045,2.045,0,0,0,2.89-.087l2.886-2.973h7.715c3.438,0,6.365-2.437,6.365-5.874v-15.66A6.56,6.56,0,0,0,1128.922,294.914Z" transform="translate(-1098.687 -294.914)"/></g><g transform="translate(38.329 35.919)"><path class="ad" d="M658.455,460.086H634.364a6.6,6.6,0,0,0-6.372,6.513v15.66a6.255,6.255,0,0,0,6.372,6.109h7.715l2.886,2.944a2.043,2.043,0,0,0,2.89-.029l2.886-2.915h7.715a6.052,6.052,0,0,0,6.136-6.109V466.6A6.4,6.4,0,0,0,658.455,460.086Z" transform="translate(-632.992 -466.086)"/><path class="ae" d="M55.224,0H47.771A1.978,1.978,0,0,0,45.8,1.975v7.3H45.6a.8.8,0,0,0-.8.8V14.9a.8.8,0,0,0,.8.8H45.8v.885a1.977,1.977,0,0,0,1.975,1.975h10.17a1.977,1.977,0,0,0,1.975-1.975V4.674ZM48.608,13.672a1.9,1.9,0,0,0,.631-.109l.114.591a2.15,2.15,0,0,1-.859.144,1.592,1.592,0,0,1-1.753-1.674,1.707,1.707,0,0,1,1.828-1.778,1.979,1.979,0,0,1,.824.149l-.154.6a1.63,1.63,0,0,0-.636-.124,1.007,1.007,0,0,0-1.068,1.108A1,1,0,0,0,48.608,13.672Zm9.332,3.676H47.771a.766.766,0,0,1-.765-.766V15.7h9.48a.8.8,0,0,0,.8-.8V10.074a.8.8,0,0,0-.8-.8h-9.48v-7.3a.766.766,0,0,1,.765-.764l7-.007V3.791a1.37,1.37,0,0,0,1.37,1.37l2.535-.007L58.7,16.582A.766.766,0,0,1,57.941,17.348Zm-7.255-4.505c-.556-.193-.919-.5-.919-.988,0-.571.477-1.008,1.267-1.008a2.053,2.053,0,0,1,.854.169l-.169.611a1.594,1.594,0,0,0-.7-.159c-.328,0-.487.149-.487.323,0,.214.189.308.621.472.591.218.869.527.869,1,0,.561-.432,1.038-1.351,1.038a2.189,2.189,0,0,1-.949-.2l.154-.625a1.93,1.93,0,0,0,.839.208c.348,0,.531-.144.531-.362S51.088,12.986,50.686,12.842Zm2.683,0c-.556-.193-.919-.5-.919-.988,0-.571.477-1.008,1.267-1.008a2.055,2.055,0,0,1,.854.169l-.169.611a1.6,1.6,0,0,0-.7-.159c-.328,0-.487.149-.487.323,0,.214.189.308.621.472.591.218.869.527.869,1,0,.561-.432,1.038-1.351,1.038a2.189,2.189,0,0,1-.949-.2l.154-.625a1.93,1.93,0,0,0,.839.208c.348,0,.531-.144.531-.362S53.771,12.986,53.369,12.842Z" transform="translate(-38.591 -0.528)"/></g><g transform="translate(195.959 72.46)"><path class="ag" d="M1383.085,628.117h-24.092a6.371,6.371,0,0,0-6.143,6.47v15.66a5.866,5.866,0,0,0,6.143,5.874h7.715l2.886,3.061a2.045,2.045,0,0,0,2.889-.087l2.886-2.973h7.715c3.437,0,6.365-2.437,6.365-5.874v-15.66A6.56,6.56,0,0,0,1383.085,628.117Z" transform="translate(-1352.85 -628.117)"/></g><g transform="translate(-20.455 103.382)"><g transform="translate(32)"><path class="ae" d="M32,0l1.243,14.035,5.58,1.559L44.4,14.036,45.645,0ZM42.95,4.59H36.409l.156,1.763h6.229l-.469,5.286-3.5.978h0l-3.5-.979-.246-2.765h1.715l.127,1.435,1.9.519,0,0,1.905-.519.2-2.233H35l-.462-5.2H43.1Z" transform="translate(-32)"/></g></g><g class="ai" transform="translate(45.545 -6652.618)"><g transform="translate(106.284 6660)"><g transform="translate(7.338 0)"><path class="ae" d="M354.365.349a13.59,13.59,0,0,1,1.768,3.606,7.79,7.79,0,0,0,2.651-.929l.241-.149A6.726,6.726,0,0,0,354.365.349Z" transform="translate(-354.365 -0.349)"/></g><g transform="translate(4.805 4.687)"><path class="ae" d="M235.64,226.695a14.794,14.794,0,0,1-3.37,0,9.2,9.2,0,0,0-.226,1.541h3.823A9.2,9.2,0,0,0,235.64,226.695Z" transform="translate(-232.043 -226.695)"/></g><g transform="translate(5.296 9.598)"><path class="ae" d="M257.178,463.853a13.965,13.965,0,0,0-1.42.074,12.923,12.923,0,0,0,1.42,2.941,12.924,12.924,0,0,0,1.42-2.941A13.965,13.965,0,0,0,257.178,463.853Z" transform="translate(-255.758 -463.853)"/></g><g transform="translate(9.357 7.191)"><path class="ae" d="M452.107,347.6a10.2,10.2,0,0,1-.23,1.688,8.619,8.619,0,0,1,2.91,1.046l.272.169a6.7,6.7,0,0,0,.894-2.9Z" transform="translate(-451.878 -347.599)"/></g><g transform="translate(9.357 3.325)"><path class="ae" d="M455.06,160.918l-.272.169a8.618,8.618,0,0,1-2.91,1.048,10.2,10.2,0,0,1,.23,1.685h3.846A6.7,6.7,0,0,0,455.06,160.918Z" transform="translate(-451.878 -160.918)"/></g><g transform="translate(4.805 7.191)"><path class="ae" d="M232.042,347.6a9.19,9.19,0,0,0,.227,1.541,14.849,14.849,0,0,1,3.37,0,9.193,9.193,0,0,0,.225-1.541Z" transform="translate(-232.042 -347.599)"/></g><g transform="translate(0 3.325)"><path class="ae" d="M1.166,161.087l-.272-.169a6.7,6.7,0,0,0-.894,2.9H3.846a10.2,10.2,0,0,1,.23-1.685A8.618,8.618,0,0,1,1.166,161.087Z" transform="translate(0 -160.918)"/></g><g transform="translate(1.434 9.813)"><path class="ae" d="M72.157,474.246a7.8,7.8,0,0,0-2.651.928l-.241.15a6.724,6.724,0,0,0,4.661,2.527A13.578,13.578,0,0,1,72.157,474.246Z" transform="translate(-69.265 -474.246)"/></g><g transform="translate(5.296 0.806)"><path class="ae" d="M257.178,39.271a12.929,12.929,0,0,0-1.42,2.941,13.731,13.731,0,0,0,2.841,0A12.93,12.93,0,0,0,257.178,39.271Z" transform="translate(-255.758 -39.271)"/></g><g transform="translate(7.337 9.813)"><path class="ae" d="M358.717,475.173a7.8,7.8,0,0,0-2.651-.928,13.577,13.577,0,0,1-1.77,3.605,6.723,6.723,0,0,0,4.661-2.527Z" transform="translate(-354.295 -474.245)"/></g><g transform="translate(1.436 0)"><path class="ae" d="M69.334,2.878l.239.149a7.791,7.791,0,0,0,2.651.929A13.588,13.588,0,0,1,73.995.35,6.726,6.726,0,0,0,69.334,2.878Z" transform="translate(-69.334 -0.35)"/></g><g transform="translate(0 7.191)"><path class="ae" d="M3.846,347.6H0a6.7,6.7,0,0,0,.894,2.9l.272-.169a8.619,8.619,0,0,1,2.91-1.046A10.191,10.191,0,0,1,3.846,347.6Z" transform="translate(0 -347.599)"/></g></g></g><g transform="translate(160.523 77.699)"><path class="ae" d="M50.9,131.768c-2.671-.015-4.88-5.467-4.88-8.243,0-4.535,3.4-5.528,4.713-5.528a5.424,5.424,0,0,1,1.778.437,3.975,3.975,0,0,0,1.015.291,3.161,3.161,0,0,0,.728-.236,5.838,5.838,0,0,1,2.2-.531h.005a4.5,4.5,0,0,1,3.766,1.9l.275.413-.4.3a3.326,3.326,0,0,0-1.6,2.743,3.1,3.1,0,0,0,1.728,2.862c.247.149.5.3.5.638,0,.219-1.75,4.926-4.29,4.926A3.45,3.45,0,0,1,55,131.389a2.938,2.938,0,0,0-1.29-.311,3.317,3.317,0,0,0-1.021.276,5,5,0,0,1-1.771.413Z" transform="translate(0 -113.824)"/><path class="ae" d="M258.525,0c.066,2.386-1.64,4.041-3.344,3.937A3.8,3.8,0,0,1,258.525,0Z" transform="translate(-201.803)"/></g></g></g></svg>